<svg width="30" height="30" viewBox="0 0 30 30" fill="none" xmlns="http://www.w3.org/2000/svg">
<path d="M29.1837 22.017L24.9971 17.8304C23.5019 16.3352 20.9601 16.9333 20.362 18.877C19.9134 20.2228 18.4182 20.9704 17.0725 20.6713C14.0821 19.9237 10.045 16.0361 9.29742 12.8962C8.84886 11.5504 9.74598 10.0552 11.0917 9.60673C13.0354 9.00864 13.6335 6.46679 12.1383 4.97158L7.95173 0.784986C6.75556 -0.261662 4.96131 -0.261662 3.91466 0.784986L1.07376 3.62589C-1.76714 6.61631 1.3728 14.5409 8.40029 21.5684C15.4278 28.5959 23.3524 31.8854 26.3428 28.8949L29.1837 26.054C30.2304 24.8579 30.2304 23.0636 29.1837 22.017Z" fill="#FF8881"/>
</svg>
