<svg width="133" height="74" viewBox="0 0 133 74" fill="none" xmlns="http://www.w3.org/2000/svg">
<path d="M0.34 69H1.6405L2.6605 66.0335H8.1005L9.129 69H10.4295L6.2135 56.76H4.556L0.34 69ZM3.0685 64.8605L5.372 58.171L7.6925 64.8605H3.0685ZM13.1544 69H14.4039V64.3505H18.3139L20.5664 69H22.0029L19.5889 64.0445C20.2746 63.7668 20.8016 63.3163 21.1699 62.693C21.5382 62.0697 21.7224 61.3585 21.7224 60.5595C21.7224 59.6018 21.4646 58.7773 20.9489 58.086C20.4332 57.3947 19.6966 56.9753 18.7389 56.828C18.5859 56.7997 18.4329 56.7827 18.2799 56.777C18.1326 56.7657 17.9994 56.76 17.8804 56.76H13.1544V69ZM14.4039 63.1605V57.9585H17.8464C17.9484 57.9585 18.0674 57.9642 18.2034 57.9755C18.3451 57.9812 18.4782 57.9982 18.6029 58.0265C19.2319 58.1625 19.6937 58.477 19.9884 58.97C20.2887 59.4573 20.4389 59.9872 20.4389 60.5595C20.4389 61.1262 20.2887 61.656 19.9884 62.149C19.6937 62.642 19.2319 62.9537 18.6029 63.084C18.4782 63.1123 18.3451 63.1322 18.2034 63.1435C18.0674 63.1548 17.9484 63.1605 17.8464 63.1605H14.4039ZM25.069 69H26.2675V59.548L30.6195 69H31.427L35.7875 59.548V68.9915H36.9775V56.76H35.813L31.0275 67.0535L26.2165 56.76H25.069V69ZM40.553 69H41.8025V64.3505H45.279C45.3923 64.3505 45.5255 64.3448 45.6785 64.3335C45.8315 64.3222 45.9845 64.3052 46.1375 64.2825C47.0895 64.1352 47.8233 63.7158 48.339 63.0245C48.8603 62.3332 49.121 61.5115 49.121 60.5595C49.121 59.6018 48.8631 58.7773 48.3475 58.086C47.8318 57.3947 47.0951 56.9753 46.1375 56.828C45.9845 56.7997 45.8315 56.7827 45.6785 56.777C45.5311 56.7657 45.398 56.76 45.279 56.76H40.553V69ZM41.8025 63.1605V57.9585H45.245C45.347 57.9585 45.466 57.9642 45.602 57.9755C45.7436 57.9812 45.8768 57.9982 46.0015 58.0265C46.6305 58.1625 47.0923 58.477 47.387 58.97C47.6873 59.4573 47.8375 59.9872 47.8375 60.5595C47.8375 61.1262 47.6873 61.656 47.387 62.149C47.0923 62.642 46.6305 62.9537 46.0015 63.084C45.8768 63.1123 45.7436 63.1322 45.602 63.1435C45.466 63.1548 45.347 63.1605 45.245 63.1605H41.8025ZM52.1727 69H59.2362V67.8015H53.4222V56.76H52.1727V69ZM61.0254 69H62.3259L63.3459 66.0335H68.7859L69.8144 69H71.1149L66.8989 56.76H65.2414L61.0254 69ZM63.7539 64.8605L66.0574 58.171L68.3779 64.8605H63.7539ZM76.0826 69H77.3321V57.9585H81.6076V56.76H71.8071V57.9585H76.0826V69ZM84.1606 69H85.4101V63.5005H90.1701V62.2595H85.4101V58.0095H91.1901V56.76H84.1606V69ZM98.8725 69.255C100.097 69.255 101.128 68.9858 101.967 68.4475C102.805 67.9092 103.44 67.1612 103.871 66.2035C104.301 65.2402 104.517 64.1323 104.517 62.88C104.517 61.622 104.301 60.5142 103.871 59.5565C103.44 58.5988 102.805 57.8508 101.967 57.3125C101.128 56.7742 100.097 56.505 98.8725 56.505C97.6542 56.505 96.6257 56.7742 95.787 57.3125C94.9484 57.8508 94.3137 58.5988 93.883 59.5565C93.4524 60.5142 93.237 61.622 93.237 62.88C93.237 64.1323 93.4524 65.2402 93.883 66.2035C94.3137 67.1612 94.9484 67.9092 95.787 68.4475C96.6257 68.9858 97.6542 69.255 98.8725 69.255ZM98.8725 68.0565C97.9149 68.0508 97.113 67.8298 96.467 67.3935C95.8267 66.9572 95.3479 66.3508 95.0305 65.5745C94.7132 64.7982 94.5574 63.9 94.563 62.88C94.5744 61.86 94.7387 60.9618 95.056 60.1855C95.3734 59.4035 95.8494 58.7943 96.484 58.358C97.1187 57.916 97.9149 57.6978 98.8725 57.7035C99.8302 57.7092 100.629 57.9302 101.27 58.3665C101.91 58.8028 102.389 59.4092 102.706 60.1855C103.029 60.9618 103.191 61.86 103.191 62.88C103.191 63.9 103.029 64.801 102.706 65.583C102.389 66.3593 101.91 66.9657 101.27 67.402C100.629 67.8383 99.8302 68.0565 98.8725 68.0565ZM107.409 69H108.658V64.3505H112.568L114.821 69H116.257L113.843 64.0445C114.529 63.7668 115.056 63.3163 115.424 62.693C115.793 62.0697 115.977 61.3585 115.977 60.5595C115.977 59.6018 115.719 58.7773 115.203 58.086C114.688 57.3947 113.951 56.9753 112.993 56.828C112.84 56.7997 112.687 56.7827 112.534 56.777C112.387 56.7657 112.254 56.76 112.135 56.76H107.409V69ZM108.658 63.1605V57.9585H112.101C112.203 57.9585 112.322 57.9642 112.458 57.9755C112.599 57.9812 112.733 57.9982 112.857 58.0265C113.486 58.1625 113.948 58.477 114.243 58.97C114.543 59.4573 114.693 59.9872 114.693 60.5595C114.693 61.1262 114.543 61.656 114.243 62.149C113.948 62.642 113.486 62.9537 112.857 63.084C112.733 63.1123 112.599 63.1322 112.458 63.1435C112.322 63.1548 112.203 63.1605 112.101 63.1605H108.658ZM119.323 69H120.522V59.548L124.874 69H125.681L130.042 59.548V68.9915H131.232V56.76H130.067L125.282 67.0535L120.471 56.76H119.323V69Z" fill="black"/>
<rect x="35" y="45" width="63" height="1" fill="black"/>
<path d="M67.0002 33.3908C64.3517 33.3908 61.7628 32.6055 59.5607 31.1341C57.3585 29.6627 55.6422 27.5713 54.6287 25.1245C53.6152 22.6776 53.35 19.9852 53.8667 17.3876C54.3834 14.79 55.6587 12.404 57.5315 10.5313C59.4042 8.65854 61.7902 7.38319 64.3878 6.8665C66.9853 6.34981 69.6778 6.61499 72.1246 7.62851C74.5715 8.64203 76.6628 10.3584 78.1343 12.5605C79.6057 14.7626 80.391 17.3516 80.391 20C80.3871 23.5503 78.9751 26.9541 76.4647 29.4645C73.9542 31.9749 70.5505 33.387 67.0002 33.3908ZM67.0002 7.69028C64.5656 7.69028 62.1856 8.41223 60.1613 9.76484C58.1369 11.1175 56.5592 13.04 55.6275 15.2893C54.6958 17.5386 54.452 20.0137 54.927 22.4015C55.402 24.7894 56.5744 26.9828 58.2959 28.7043C60.0174 30.4259 62.2108 31.5982 64.5987 32.0732C66.9865 32.5482 69.4616 32.3044 71.7109 31.3727C73.9602 30.441 75.8828 28.8633 77.2354 26.8389C78.588 24.8146 79.3099 22.4346 79.3099 20C79.3061 16.7365 78.0079 13.6077 75.7002 11.3C73.3925 8.9923 70.2638 7.69414 67.0002 7.69028Z" fill="black"/>
<path d="M67 5.22271C66.8567 5.22271 66.7192 5.16576 66.6178 5.06439C66.5164 4.96302 66.4595 4.82553 66.4595 4.68217V1.62163C66.4595 1.47827 66.5164 1.34078 66.6178 1.23941C66.7192 1.13803 66.8567 1.08109 67 1.08109C67.1434 1.08109 67.2809 1.13803 67.3822 1.23941C67.4836 1.34078 67.5406 1.47827 67.5406 1.62163V4.68217C67.5406 4.82553 67.4836 4.96302 67.3822 5.06439C67.2809 5.16576 67.1434 5.22271 67 5.22271Z" fill="black"/>
<path d="M61.1621 6.37838C61.055 6.37842 60.9502 6.34664 60.8612 6.28707C60.7722 6.2275 60.7029 6.14282 60.6621 6.04378L60.081 4.62973C60.0359 4.49956 60.0423 4.35711 60.0987 4.23147C60.1552 4.10583 60.2575 4.00647 60.3847 3.95369C60.5119 3.90091 60.6545 3.89869 60.7833 3.94748C60.9121 3.99627 61.0174 4.09239 61.0777 4.21622L61.661 5.63081C61.695 5.71291 61.7083 5.80213 61.6996 5.89058C61.6909 5.97903 61.6606 6.06398 61.6113 6.1379C61.5619 6.21182 61.4951 6.27244 61.4168 6.31439C61.3384 6.35633 61.2509 6.37831 61.1621 6.37838Z" fill="black"/>
<path d="M56.1686 9.70918C56.0252 9.70915 55.8877 9.65218 55.7864 9.5508L53.6242 7.38864C53.5228 7.28721 53.4658 7.14964 53.4658 7.0062C53.4658 6.86276 53.5228 6.7252 53.6242 6.62377C53.7257 6.52234 53.8632 6.46536 54.0067 6.46536C54.1501 6.46536 54.2877 6.52234 54.3891 6.62377L56.5513 8.78593C56.6268 8.86153 56.6783 8.95783 56.6991 9.06267C56.72 9.16751 56.7093 9.27618 56.6684 9.37494C56.6275 9.47369 56.5582 9.55811 56.4693 9.6175C56.3805 9.6769 56.276 9.70861 56.1691 9.70864L56.1686 9.70918Z" fill="black"/>
<path d="M52.8571 14.6557C52.786 14.6555 52.7157 14.6414 52.6501 14.6141L51.2371 14.0259C51.1715 13.9987 51.1119 13.9588 51.0618 13.9085C51.0116 13.8582 50.9718 13.7985 50.9447 13.7329C50.9176 13.6672 50.9037 13.5969 50.9038 13.5259C50.9039 13.4548 50.918 13.3845 50.9452 13.3189C50.9725 13.2533 51.0124 13.1937 51.0627 13.1436C51.113 13.0934 51.1726 13.0536 51.2383 13.0265C51.3039 12.9994 51.3743 12.9855 51.4453 12.9856C51.5163 12.9857 51.5867 12.9998 51.6523 13.027L53.0652 13.6146C53.1809 13.6625 53.2764 13.749 53.3353 13.8594C53.3943 13.9699 53.4131 14.0974 53.3886 14.2201C53.364 14.3429 53.2976 14.4533 53.2007 14.5325C53.1037 14.6118 52.9823 14.6549 52.8571 14.6546V14.6557Z" fill="black"/>
<path d="M51.6821 20.5405H48.6216C48.4782 20.5405 48.3407 20.4836 48.2394 20.3822C48.138 20.2809 48.0811 20.1434 48.0811 20C48.0811 19.8566 48.138 19.7192 48.2394 19.6178C48.3407 19.5164 48.4782 19.4595 48.6216 19.4595H51.6821C51.8255 19.4595 51.963 19.5164 52.0644 19.6178C52.1657 19.7192 52.2227 19.8566 52.2227 20C52.2227 20.1434 52.1657 20.2809 52.0644 20.3822C51.963 20.4836 51.8255 20.5405 51.6821 20.5405Z" fill="black"/>
<path d="M51.4241 26.9627C51.2987 26.9633 51.177 26.9203 51.0798 26.8411C50.9826 26.7618 50.916 26.6512 50.8914 26.5282C50.8668 26.4052 50.8857 26.2775 50.9449 26.1669C51.0042 26.0563 51.1 25.9698 51.216 25.9222L52.6306 25.3389C52.7632 25.2842 52.912 25.2844 53.0444 25.3395C53.1768 25.3945 53.2819 25.4999 53.3366 25.6324C53.3913 25.765 53.3911 25.9138 53.336 26.0462C53.281 26.1786 53.1756 26.2837 53.0431 26.3384L51.6295 26.9216C51.5644 26.9486 51.4946 26.9625 51.4241 26.9627Z" fill="black"/>
<path d="M54.0043 33.5362C53.8973 33.5363 53.7927 33.5046 53.7037 33.4452C53.6147 33.3858 53.5454 33.3013 53.5045 33.2024C53.4636 33.1036 53.4529 32.9948 53.4738 32.8898C53.4948 32.7849 53.5464 32.6885 53.6222 32.613L55.7843 30.4508C55.8342 30.3992 55.8939 30.358 55.9598 30.3297C56.0258 30.3014 56.0967 30.2864 56.1685 30.2858C56.2402 30.2852 56.3114 30.2989 56.3778 30.326C56.4443 30.3532 56.5046 30.3934 56.5554 30.4441C56.6061 30.4949 56.6463 30.5552 56.6734 30.6217C56.7006 30.6881 56.7143 30.7593 56.7137 30.831C56.713 30.9028 56.6981 30.9737 56.6698 31.0397C56.6415 31.1056 56.6003 31.1653 56.5487 31.2151L54.3865 33.3773C54.3364 33.4276 54.2768 33.4675 54.2112 33.4948C54.1457 33.5221 54.0754 33.5361 54.0043 33.5362Z" fill="black"/>
<path d="M60.5266 36.0957C60.4377 36.0955 60.3502 36.0735 60.2719 36.0315C60.1936 35.9895 60.1268 35.9288 60.0775 35.8548C60.0282 35.7808 59.9979 35.6958 59.9893 35.6073C59.9808 35.5189 59.9941 35.4296 60.0283 35.3476L60.6158 33.9346C60.6709 33.8022 60.7763 33.6971 60.9088 33.6424C61.0414 33.5877 61.1902 33.5879 61.3226 33.643C61.455 33.698 61.5601 33.8034 61.6148 33.9359C61.6695 34.0685 61.6693 34.2173 61.6142 34.3497L61.0261 35.7627C60.9851 35.8613 60.9157 35.9456 60.8268 36.0049C60.7379 36.0641 60.6335 36.0957 60.5266 36.0957Z" fill="black"/>
<path d="M67 38.9189C66.8567 38.9189 66.7192 38.862 66.6178 38.7606C66.5164 38.6592 66.4595 38.5217 66.4595 38.3784V35.3178C66.4595 35.1745 66.5164 35.037 66.6178 34.9356C66.7192 34.8342 66.8567 34.7773 67 34.7773C67.1434 34.7773 67.2809 34.8342 67.3822 34.9356C67.4836 35.037 67.5406 35.1745 67.5406 35.3178V38.3784C67.5406 38.5217 67.4836 38.6592 67.3822 38.7606C67.2809 38.862 67.1434 38.9189 67 38.9189Z" fill="black"/>
<path d="M73.422 36.1167C73.3149 36.1168 73.2101 36.085 73.1211 36.0254C73.0321 35.9659 72.9628 35.8812 72.922 35.7822L72.3387 34.3676C72.3116 34.3019 72.2978 34.2316 72.2979 34.1606C72.2979 34.0896 72.312 34.0194 72.3393 33.9538C72.3665 33.8882 72.4064 33.8287 72.4567 33.7786C72.507 33.7284 72.5666 33.6887 72.6322 33.6616C72.6979 33.6345 72.7682 33.6206 72.8392 33.6207C72.9102 33.6208 72.9804 33.6349 73.046 33.6622C73.1116 33.6894 73.1711 33.7293 73.2212 33.7796C73.2714 33.8299 73.3111 33.8895 73.3382 33.9551L73.9214 35.3703C73.9751 35.5024 73.9744 35.6504 73.9194 35.7821C73.8644 35.9137 73.7597 36.0183 73.6279 36.073C73.5629 36.1011 73.4928 36.116 73.422 36.1167Z" fill="black"/>
<path d="M79.9955 33.5362C79.9245 33.5363 79.8541 33.5223 79.7884 33.4951C79.7227 33.468 79.6631 33.4281 79.6128 33.3778L77.4507 31.2157C77.399 31.1658 77.3579 31.1062 77.3295 31.0402C77.3012 30.9743 77.2863 30.9033 77.2857 30.8316C77.285 30.7598 77.2987 30.6886 77.3259 30.6222C77.3531 30.5558 77.3932 30.4954 77.444 30.4447C77.4947 30.3939 77.5551 30.3538 77.6215 30.3266C77.6879 30.2994 77.7591 30.2857 77.8309 30.2864C77.9027 30.287 77.9736 30.3019 78.0395 30.3302C78.1055 30.3585 78.1651 30.3997 78.215 30.4514L80.3772 32.6135C80.4529 32.6891 80.5045 32.7854 80.5255 32.8904C80.5464 32.9953 80.5358 33.1041 80.4949 33.203C80.4539 33.3018 80.3846 33.3863 80.2956 33.4457C80.2066 33.5052 80.102 33.5368 79.995 33.5368L79.9955 33.5362Z" fill="black"/>
<path d="M82.5546 27.0141C82.4835 27.014 82.4131 26.9997 82.3476 26.9719L80.9346 26.3843C80.8022 26.3293 80.6971 26.2239 80.6424 26.0913C80.5877 25.9588 80.5879 25.81 80.643 25.6776C80.698 25.5452 80.8034 25.4401 80.936 25.3854C81.0685 25.3307 81.2174 25.3309 81.3498 25.3859L82.7627 25.9741C82.8784 26.0219 82.9739 26.1085 83.0329 26.2189C83.0918 26.3293 83.1106 26.4568 83.0861 26.5796C83.0615 26.7023 82.9951 26.8128 82.8982 26.892C82.8012 26.9712 82.6798 27.0144 82.5546 27.0141Z" fill="black"/>
<path d="M85.3784 20.5405H82.3179C82.1745 20.5405 82.037 20.4836 81.9357 20.3822C81.8343 20.2809 81.7773 20.1434 81.7773 20C81.7773 19.8566 81.8343 19.7192 81.9357 19.6178C82.037 19.5164 82.1745 19.4595 82.3179 19.4595H85.3784C85.5218 19.4595 85.6593 19.5164 85.7606 19.6178C85.862 19.7192 85.919 19.8566 85.919 20C85.919 20.1434 85.862 20.2809 85.7606 20.3822C85.6593 20.4836 85.5218 20.5405 85.3784 20.5405Z" fill="black"/>
<path d="M81.1622 14.7027C81.037 14.7029 80.9155 14.6597 80.8186 14.5803C80.7217 14.5009 80.6553 14.3903 80.6309 14.2674C80.6066 14.1445 80.6256 14.0169 80.6849 13.9065C80.7441 13.7961 80.8399 13.7097 80.9558 13.6621L82.3704 13.0811C82.5025 13.0284 82.6501 13.03 82.7811 13.0854C82.9121 13.1409 83.016 13.2457 83.0702 13.3773C83.1244 13.5088 83.1246 13.6564 83.0707 13.788C83.0168 13.9197 82.9131 14.0248 82.7822 14.0805L81.3677 14.6611C81.3026 14.6884 81.2328 14.7025 81.1622 14.7027Z" fill="black"/>
<path d="M77.8314 9.70917C77.7245 9.70914 77.6201 9.67743 77.5312 9.61803C77.4423 9.55864 77.3731 9.47422 77.3322 9.37547C77.2913 9.27671 77.2805 9.16804 77.3014 9.0632C77.3222 8.95837 77.3737 8.86206 77.4493 8.78647L79.6114 6.62431C79.7129 6.52288 79.8504 6.4659 79.9939 6.4659C80.1373 6.4659 80.2749 6.52288 80.3763 6.62431C80.4777 6.72573 80.5347 6.8633 80.5347 7.00674C80.5347 7.15018 80.4777 7.28774 80.3763 7.38917L78.2141 9.55133C78.1639 9.60149 78.1042 9.64125 78.0385 9.66834C77.9728 9.69542 77.9025 9.70929 77.8314 9.70917Z" fill="black"/>
<path d="M72.8851 6.39838C72.7961 6.39835 72.7086 6.37638 72.6302 6.3344C72.5518 6.29243 72.4849 6.23175 72.4356 6.15776C72.3862 6.08376 72.3559 5.99873 72.3473 5.9102C72.3387 5.82168 72.352 5.7324 72.3862 5.65027L72.9743 4.2373C73.0003 4.17005 73.0395 4.1087 73.0897 4.05684C73.1398 4.00499 73.1998 3.96369 73.2661 3.93537C73.3324 3.90705 73.4037 3.89229 73.4758 3.89196C73.5479 3.89162 73.6194 3.90572 73.686 3.93342C73.7526 3.96112 73.8129 4.00186 73.8635 4.05325C73.9141 4.10463 73.9539 4.16562 73.9806 4.23263C74.0072 4.29963 74.0202 4.37129 74.0188 4.44339C74.0173 4.51549 74.0015 4.58656 73.9721 4.65244L73.3845 6.06541C73.3435 6.16406 73.2742 6.24834 73.1853 6.3076C73.0964 6.36686 72.9919 6.39845 72.8851 6.39838Z" fill="black"/>
</svg>
