<svg width="630" height="632" viewBox="0 0 630 632" fill="none" xmlns="http://www.w3.org/2000/svg">
<path d="M552.383 542.955C539.497 556.537 527.305 565.294 517.674 572.215C404.442 653.558 270.459 629.847 241.983 624.056C199.934 615.504 118.558 599.058 59.8912 529.789C-27.9961 426.024 -8.75185 265.939 53.7908 151.34C65.0846 130.648 133.035 20.9082 268.462 3.18375C350.42 -7.5431 445.958 14.0913 515.142 72.1234C660.37 193.943 650.03 440.035 552.383 542.955Z" fill="url(#paint0_linear)"/>
<path d="M524.44 1.70201C548.052 24.1383 680.126 160.326 574.746 307.369C574.746 307.369 464.742 240.121 519.86 3.06856C520.343 0.995017 522.897 0.23607 524.44 1.70201Z" fill="url(#paint1_linear)"/>
<path opacity="0.47" d="M529.09 34.384C533.178 43.9363 537.074 53.588 540.882 63.2623C544.688 72.9411 548.381 82.665 551.962 92.4274C559.12 111.954 565.845 131.644 571.955 151.517C578.049 171.391 583.569 191.451 587.975 211.749C590.211 221.888 592.079 232.107 593.552 242.368C595.01 252.63 596.063 262.952 596.293 273.284V273.291C596.311 274.066 596.95 274.678 597.724 274.66C598.497 274.642 599.109 274.002 599.091 273.228V273.219C598.791 262.733 597.658 252.32 596.122 241.991C594.57 231.662 592.625 221.4 590.315 211.231C585.757 190.875 580.093 170.8 573.857 150.925C567.605 131.05 560.745 111.378 553.451 91.874C549.805 82.1207 546.044 72.4125 542.173 62.7473C538.297 53.0843 534.337 43.4597 530.177 33.9052C530.046 33.6048 529.697 33.467 529.396 33.598C529.099 33.729 528.961 34.0768 529.087 34.375L529.09 34.384Z" fill="white"/>
<path d="M551.697 367.915C551.697 367.915 528.318 329.896 541.586 267.563C553.897 209.729 587.44 72.6678 578.199 14.7328C577.791 12.1669 581.134 10.8432 582.562 13.0139C597.892 36.2882 631.708 97.5978 628.877 182.08C625.229 291.027 551.697 367.915 551.697 367.915Z" fill="#91B3FA"/>
<path opacity="0.45" d="M591.488 65.5256C592.726 68.34 593.649 71.2809 594.594 74.1992L595.871 78.6241C596.284 80.1014 596.616 81.6034 596.992 83.092C597.171 83.8374 597.365 84.5805 597.534 85.3281L597.99 87.5847L598.901 92.0954L599.623 96.6423C599.842 98.1602 600.155 99.6622 600.306 101.189C601.929 113.346 602.567 125.636 602.114 137.885C601.708 150.127 600.676 162.368 598.621 174.452L597.908 178.992L597.545 181.26L597.078 183.51L595.208 192.511C594.885 194.011 594.608 195.513 594.251 197.008L593.189 201.494L591.061 210.466C588.117 222.403 585.078 234.318 581.852 246.186C578.639 258.058 575.294 269.894 571.957 281.743C568.636 293.595 565.204 305.429 562.319 317.425C561.565 320.413 560.956 323.442 560.297 326.458C559.95 327.96 559.704 329.487 559.424 331.007C559.16 332.529 558.854 334.04 558.621 335.57C557.685 341.679 557.132 347.859 557.245 354.046C557.249 354.24 557.407 354.394 557.601 354.39C557.786 354.385 557.938 354.238 557.944 354.055V354.035L558.129 349.443L558.177 348.295C558.195 347.914 558.253 347.534 558.29 347.152L558.538 344.869C558.79 341.817 559.37 338.8 559.837 335.773C560.103 334.264 560.444 332.766 560.742 331.262C561.058 329.762 561.337 328.256 561.717 326.767C562.443 323.783 563.118 320.793 563.941 317.831C567.07 305.953 570.592 294.164 574.096 282.367L579.334 264.656C581.019 258.733 582.734 252.818 584.354 246.875C586.012 240.943 587.605 234.991 589.162 229.031C589.96 226.056 590.687 223.061 591.442 220.075L593.68 211.107L595.817 202.115L596.886 197.62C597.245 196.123 597.513 194.596 597.832 193.085L599.668 183.998L600.126 181.725L600.48 179.435L601.175 174.852L601.87 170.269C602.091 168.74 602.371 167.217 602.488 165.675L603.395 156.445C603.767 153.376 603.808 150.277 603.991 147.193C604.122 144.106 604.372 141.022 604.293 137.928C604.485 125.566 603.578 113.19 601.68 100.986C601.495 99.4522 601.153 97.9433 600.873 96.4254L599.993 91.8786L598.924 87.3723L598.389 85.1203C598.195 84.3727 597.976 83.6341 597.771 82.8909C596.162 76.9391 594.215 71.0573 591.567 65.4872C591.555 65.4646 591.53 65.4556 591.508 65.4669C591.488 65.4759 591.478 65.503 591.488 65.5256Z" fill="white"/>
<path d="M420.783 102.486L238.276 84.0135L55.4719 101.426L52.0991 506.517L234.829 498.121L417.383 510.87L599.944 495.53L603.28 94.6997L420.783 102.486Z" fill="white"/>
<path d="M238.827 488.921L65.209 496.883L68.4081 112.598L242.098 96.082L238.827 488.921Z" fill="#BDD0FB"/>
<path d="M412.278 501.017L238.827 488.921L242.098 96.082L415.504 113.608L412.278 501.017Z" fill="#91B3FA"/>
<path d="M585.733 486.468L412.277 501.017L415.503 113.608L588.9 106.224L585.733 486.468Z" fill="#BDD0FB"/>
<path opacity="0.47" d="M242.227 96.0905L238.297 96.0554L234.795 489.017L238.725 489.052L242.227 96.0905Z" fill="white"/>
<path d="M366.039 356.162C365.34 361.645 364.769 367.142 364.329 372.654C364.225 373.968 364.48 375.755 365.748 375.884C366.511 375.961 367.147 375.322 367.661 374.732C369.845 372.229 372.191 369.004 371.135 365.814C370.743 364.626 369.906 363.628 369.583 362.419C369.098 360.599 369.858 358.663 369.662 356.786C369.466 354.909 367.214 353.063 365.953 354.425L366.039 356.162Z" fill="url(#paint2_linear)"/>
<path d="M225.527 175.861C216.936 171.314 211.535 170.699 202.287 171.707C193.563 172.658 187.67 177.044 181.68 183.299C180.318 184.722 178.993 186.278 177.227 187.094C169.825 190.516 160.437 189.824 152.88 193.201C143.882 197.222 141.344 209.722 133.128 215.251C128.372 218.452 122.378 218.856 117.155 221.144C109.423 224.535 105.856 231.575 101.466 238.428C98.7656 242.641 88.8209 249.862 89.3849 254.791C89.4887 255.688 89.8632 256.532 90.3347 257.291C93.0735 261.709 97.1638 262.177 101.477 263.437C107.178 265.104 110.617 267.666 115.661 271.239C120.922 274.964 128.079 278.223 128.534 284.805C128.746 287.859 127.321 290.748 126.626 293.723C123.485 307.149 135.142 319.206 146.488 326.468C157.834 333.728 171.221 340.902 174.831 354.199C175.16 355.412 175.436 356.726 176.318 357.594C179.63 360.855 182.111 353.476 183.115 351.129C183.761 349.618 183.176 347.804 182.165 346.526C181.155 345.247 179.779 344.351 178.535 343.314C174.344 339.815 171.625 334.487 171.197 328.93C171.142 328.223 171.138 327.46 171.524 326.875C173.491 323.893 178.393 322.671 180.798 319.059C184.239 313.891 185.024 308.99 185.611 302.857C187.763 280.328 208.25 288.302 221.11 278.314C223.503 276.455 225.304 273.518 225.714 270.519C225.942 268.865 225.746 267.191 224.997 265.669C223.731 263.096 221.141 261.441 218.448 260.7C215.754 259.959 212.922 260.013 210.134 260.072C207.546 260.126 204.959 260.183 202.373 260.237C201.608 260.253 200.821 260.275 200.119 260.591C199.129 261.039 198.457 262.008 197.92 262.979C196.189 266.109 195.336 269.753 195.49 273.358C192.079 274.557 188.769 271.302 186.908 268.109C184.76 264.42 183.217 260.356 182.362 256.144C182.032 254.515 181.829 252.713 182.642 251.278C183.09 250.488 183.803 249.898 184.521 249.363C187.418 247.201 190.759 245.571 194.31 245.182C200.372 244.518 206.265 247.513 211.235 251.184C216.009 254.71 223.792 258.927 229.148 253.86C231.914 251.245 231.961 246.483 230.037 243.158C226.908 237.755 218.928 234.93 213.73 232.201C211.296 230.925 209.735 228.296 209.042 225.562C208.352 222.829 208.417 219.961 208.487 217.135C215.682 214.192 224.137 214.768 230.899 218.66C231.858 219.213 232.882 219.981 232.995 221.113C233.112 222.276 232.223 223.245 231.524 224.162C225.299 232.314 230.894 238.896 238.217 243.497C238.391 222.827 238.438 202.051 238.452 181.359C234.012 179.89 229.68 178.059 225.527 175.861Z" fill="url(#paint3_linear)"/>
<path d="M290.583 193.367C289.581 192.014 287.592 192.355 285.945 192.366C280.686 192.4 276.507 187.81 271.452 186.308C268.803 185.522 265.999 185.61 263.242 185.57C254.84 185.441 246.461 184.004 238.454 181.361C238.443 202.054 238.396 222.83 238.22 243.5C242.784 246.366 248.02 248.465 251.485 249.691C255.163 250.992 258.676 253.134 262.606 252.332C266.254 251.589 269.536 247.464 273.32 246.414C276.059 245.653 278.985 246.052 281.764 245.474C284.544 244.896 287.443 242.739 287.328 239.802C287.233 237.413 285.205 235.615 283.188 234.451C283.188 234.679 279.691 231.815 279.361 231.194C276.311 225.073 280.747 219.681 282.443 214.396C284.9 206.745 281.261 202.246 288.821 198.008C290.43 197.107 291.695 194.869 290.583 193.367Z" fill="url(#paint4_linear)"/>
<path d="M188.428 387.119C189.744 389.895 190.824 392.515 191.111 394.746C192.358 404.452 184.291 416.394 180.859 425.256C179.905 427.72 178.932 430.342 179.363 432.96C179.544 434.062 179.968 435.104 180.39 436.134C183.506 443.732 189.626 450.61 195.063 456.469C196.922 451.446 196.785 439.382 196.275 434.029C196.106 432.264 195.812 430.417 196.44 428.766C198.452 423.473 205.006 416.191 209.525 413.033C213.953 409.939 219.774 407.454 220.922 402.051C221.365 399.973 220.992 397.748 221.642 395.729C222.032 394.518 222.763 393.466 223.348 392.341C226.213 386.825 227.839 376.177 222.102 372.261C215.691 367.881 206.614 374.296 201.112 367.151C200.282 366.074 199.663 364.818 198.718 363.847C196.965 362.044 194.271 361.473 191.835 361.895C175.621 364.707 183.607 376.954 188.428 387.119Z" fill="url(#paint5_linear)"/>
<path d="M290.274 306.944C295.395 310.337 304.237 302.894 307.488 294.193C307.894 293.105 308.273 291.966 309.017 291.09C310.533 289.305 313.144 289.077 315.418 289.407C317.692 289.737 319.957 290.491 322.236 290.189C325.502 289.755 328.201 287.157 329.728 284.133C331.255 281.108 331.804 277.675 332.331 274.307C334.748 273.691 337.36 273.928 339.637 274.971C341.394 275.778 343.129 277.555 342.639 279.48C342.414 280.363 341.762 281.052 341.148 281.709C339.231 283.762 337.446 285.947 335.806 288.244C334.795 289.66 333.802 291.508 334.56 293.087C336.629 297.385 340.413 295.149 339.325 301.295C337.958 308.993 327.86 312.141 333.629 321.337C335.74 324.702 339.58 326.715 343.449 326.898C346.227 327.029 349.647 325.538 349.683 322.658C349.694 321.804 349.39 320.926 349.647 320.115C349.983 319.06 351.136 318.543 352.196 318.378C355.664 317.831 359.018 319.634 362.218 321.122C363.183 321.572 364.338 321.99 365.256 321.445C368.25 319.668 366.854 318.202 370.921 317.809C374.391 317.474 378.452 320.244 380.417 322.984C380.889 323.643 381.317 324.49 381.017 325.251C380.758 325.911 380.038 326.252 379.675 326.857C379.077 327.856 379.679 329.236 380.623 329.886C381.566 330.539 382.741 330.681 383.851 330.919C389.065 332.03 389.187 337.178 392.871 339.746C395.862 341.831 403.481 342.244 402.809 336.245C402.563 334.051 400.438 332.249 400.785 330.069C401.092 328.152 403.172 327.131 405.033 326.887C406.894 326.643 408.88 326.826 410.545 325.927C411.655 325.328 412.492 324.312 413.502 323.548C419.725 318.857 434.464 322.844 439.237 328.102C443.698 333.017 444.198 341.485 449.938 344.668C449.268 338.138 446.087 331.919 441.245 327.68C440.354 326.9 439.375 326.137 438.908 325.03C438.515 324.102 438.538 323.047 438.588 322.035C438.843 316.862 439.822 312.047 441.184 307.217C441.022 307.796 444.828 297.304 442.091 299.287C446.989 295.736 457.681 289.902 463.819 290.281C467.016 290.48 470.172 292.393 471.513 295.406C472.855 298.417 472.045 302.422 469.403 304.295C466.874 306.088 463.361 305.745 460.792 307.475C458.317 309.142 457.261 312.742 458.421 315.552C460.031 313.253 462.466 311.586 465.139 310.953C468.729 310.104 472.803 310.999 475.903 308.941C478.188 307.423 479.389 304.52 479.418 301.708C479.445 298.896 478.441 296.168 477.094 293.724C476.122 291.955 474.949 290.263 474.43 288.3C473.595 285.154 474.583 281.73 476.341 279.021C482.876 268.954 494.973 264.604 506.166 268.306C506.91 268.552 507.707 268.882 508.092 269.586C508.654 270.607 508.113 271.911 508.352 273.058C508.726 274.87 511.393 275.554 512.541 274.136C513.336 273.155 513.286 271.741 513.586 270.499C514.369 267.271 517.543 265.297 520.632 264.376C524.406 263.251 534.547 258.056 535.589 264.924C535.68 265.525 535.662 266.16 535.914 266.711C536.623 268.258 538.994 268.037 540.12 266.783C542.443 264.199 542.852 259.955 545.103 257.066C547.095 254.512 550.037 252.98 551.704 250.127C555.838 243.06 552.688 233.821 545.5 230.397C538.613 227.117 530.597 228.572 523.136 229.961C517.999 230.917 500.359 234.585 499.102 225.965C498.998 225.258 499.021 224.506 498.691 223.878C498.283 223.101 497.428 222.695 496.907 221.994C496.241 221.1 496.214 219.878 495.856 218.812C494.554 214.94 489.649 214.229 485.69 214.181C486.089 211.78 486.306 208.853 484.442 207.367C483.389 206.526 481.967 206.434 480.638 206.375C477.187 206.222 468.859 207.507 465.997 205.415C462.206 202.644 464.817 197.923 463.165 194.101C461.408 190.042 454.879 189.477 454.152 185.095C453.994 184.147 454.166 183.171 454.057 182.215C453.791 179.887 451.957 178.129 450.245 176.596C447.138 173.815 443.619 170.874 439.513 170.983C438.741 171.615 439.434 172.939 440.304 173.415C441.175 173.892 442.285 174.138 442.725 175.048C443.569 176.794 441.148 178.229 439.296 178.595C439.206 181.147 441.685 182.839 443.598 184.449C446.831 187.169 449.13 191.061 449.997 195.28C443.472 196.493 436.789 196.778 430.191 196.123C422.24 195.334 417.135 208.403 407.711 204.78C406.319 204.245 405.076 203.285 403.616 202.998C399.948 202.278 396.993 205.878 393.696 207.692C388.677 210.454 382.524 209.022 377.144 207.121C370.716 204.846 362.901 201.582 356.422 205.505C354.001 206.971 352.067 209.253 349.502 210.432C344.122 212.905 338.017 209.869 332.158 209.287C317.701 207.85 309.001 222.503 304.304 234.702C303.591 236.554 302.953 238.499 303.045 240.491C303.138 242.484 304.115 244.544 305.87 245.364C308.469 246.579 311.49 244.65 313.189 242.274C314.885 239.9 315.916 236.997 317.994 234.973C320.07 232.947 323.885 232.297 325.525 234.713C326.333 235.902 326.364 237.458 326.369 238.913C326.375 241.673 326.38 244.433 326.387 247.193C326.389 248.711 326.382 250.281 325.787 251.67C324.792 253.987 322.421 255.266 320.219 256.37C315.434 258.769 310.648 261.168 305.866 263.567C304.25 264.376 302.617 265.198 301.245 266.397C294.996 271.861 299.194 279.423 294.373 284.684C292.426 286.807 289.198 287.446 287.6 289.863C286.421 291.65 286.427 293.972 286.477 296.136C286.612 302.151 288.113 305.512 290.274 306.944Z" fill="url(#paint6_linear)"/>
<path d="M457.087 352.856C455.149 356.483 455.418 361.227 451.039 363.228C448.126 364.56 444.399 363.953 442.026 366.151C439.321 368.66 440.027 373.11 440.55 376.835C440.645 377.501 440.719 378.21 440.456 378.827C439.758 380.46 437.259 380.417 436.401 381.967C435.666 383.297 436.577 384.973 437.676 386.001C441.02 389.134 446.454 389.545 450.202 386.947C451.199 386.256 452.28 385.332 453.444 385.628C454.804 385.974 455.26 387.683 455.628 389.082C456.413 392.059 457.965 394.921 460.417 396.678C468.133 402.203 478.987 395.481 487.555 403.273C488.609 404.231 489.608 405.37 489.917 406.784C490.249 408.313 489.753 410.07 490.583 411.38C491.623 413.022 494.181 412.799 495.58 411.475C496.979 410.151 497.541 408.155 498.125 406.289C498.709 404.421 499.476 402.447 501.083 401.403C503.788 399.646 506.872 400.319 508.37 396.743C510.238 392.183 504.663 388.406 506.432 384.252C507.221 382.398 508.485 380.372 507.693 378.52C507.291 377.578 506.436 376.948 505.73 376.218C502.427 372.798 501.866 369.582 497.466 367.497C494.66 366.166 488.841 367.888 487.689 363.038C487.388 361.773 487.819 360.188 486.876 359.325C486.344 358.837 485.563 358.803 484.85 358.805C479.928 358.823 474.073 358.9 471.267 354.71C468.165 350.08 467.801 346.741 461.505 349.041C459.219 349.879 457.94 351.259 457.087 352.856Z" fill="url(#paint7_linear)"/>
<path d="M310.337 327.374C309.311 328.849 308.733 330.625 307.65 332.055C304.604 336.08 303.285 332.522 299.842 333.877C298.653 334.347 297.602 335.181 296.363 335.474C293.859 336.071 291.37 334.34 288.798 334.329C278.897 334.289 284.095 350.773 288.889 353.935C289.775 354.52 290.894 354.529 291.946 354.518C295.21 354.484 298.475 354.452 301.739 354.419C302.669 354.41 303.666 354.419 304.433 354.965C306.795 356.648 304.546 360.802 305.965 363.381C306.939 365.15 309.205 365.48 311.14 365.843C315.233 366.611 316.128 371.226 318.633 374.07C321.852 377.727 324.925 379.202 326.741 384.512C327.819 387.665 328.192 391.076 329.613 394.08C332.537 400.256 340.119 403.585 346.439 401.464C352.756 399.343 357.015 392.04 355.885 385.262C355.226 381.302 353.024 377.833 351.494 374.14C348.401 366.67 350.495 357.572 359.061 356.147C361.223 355.787 363.971 355.661 364.776 353.551C365.938 350.513 361.453 346.958 363.312 344.317C363.982 343.366 365.277 343.028 365.866 342.02C366.658 340.667 365.757 338.917 364.654 337.821C363.553 336.726 362.163 335.777 361.708 334.268C359.145 325.764 350.732 331.079 345.117 332.199C340.108 333.2 337.252 332.549 333.087 330.053C326.642 326.195 316.866 317.994 310.337 327.374Z" fill="url(#paint8_linear)"/>
<path d="M331.67 194.377C332.41 192.944 334.22 192.61 335.783 192.5C341.171 192.12 346.608 192.484 351.905 193.579C347.522 197.15 342.626 200.904 337.051 200.71C334.522 200.622 331.898 199.718 329.532 200.649C328.979 198.923 329.283 196.927 330.326 195.461L331.67 194.377Z" fill="url(#paint9_linear)"/>
<path d="M269.369 260.043C274.867 264.552 294.265 258.537 285.216 252.718C283.754 251.778 282.001 251.489 280.3 251.218C278.014 250.857 275.668 250.495 273.403 250.981C271.138 251.467 268.934 252.987 268.252 255.275C267.598 257.48 268.133 259.029 269.369 260.043Z" fill="url(#paint10_linear)"/>
<path d="M508.932 220.388C512.334 223.476 517.097 224.237 521.577 224.87C523.815 225.186 526.744 225.1 527.515 222.902C528.33 220.585 525.701 218.446 523.333 218.177C520.966 217.908 518.453 218.556 516.26 217.594C514.315 216.743 512.783 214.683 510.671 214.701C508.212 214.723 506.726 218.439 508.447 220.255L508.932 220.388Z" fill="url(#paint11_linear)"/>
<path d="M413.173 273.117C412.95 273.117 412.729 273.02 412.58 272.832C412.316 272.505 412.368 272.024 412.695 271.759C414.457 270.339 416.235 268.873 417.978 267.4C418.301 267.129 418.782 267.17 419.052 267.493C419.323 267.816 419.282 268.297 418.96 268.568C417.207 270.045 415.42 271.518 413.651 272.947C413.509 273.063 413.34 273.117 413.173 273.117ZM422.52 265.272C422.308 265.272 422.096 265.184 421.945 265.01C421.669 264.692 421.701 264.211 422.019 263.933C423.731 262.437 425.45 260.904 427.129 259.372C427.443 259.088 427.923 259.11 428.205 259.422C428.489 259.734 428.467 260.217 428.156 260.499C426.468 262.038 424.74 263.58 423.021 265.082C422.876 265.209 422.698 265.272 422.52 265.272ZM431.555 257.068C431.352 257.068 431.152 256.989 431 256.829C430.712 256.522 430.725 256.041 431.032 255.749C432.697 254.175 434.355 252.576 435.957 250.99C436.257 250.694 436.74 250.696 437.035 250.997C437.331 251.297 437.329 251.781 437.029 252.076C435.418 253.669 433.753 255.279 432.079 256.861C431.932 257.001 431.743 257.068 431.555 257.068ZM440.255 248.512C440.063 248.512 439.869 248.44 439.722 248.295C439.422 247.999 439.415 247.518 439.711 247.216C441.308 245.58 442.899 243.913 444.44 242.262C444.728 241.953 445.209 241.937 445.518 242.226C445.825 242.513 445.843 242.996 445.557 243.306C444.009 244.966 442.409 246.64 440.803 248.284C440.652 248.435 440.453 248.512 440.255 248.512ZM448.602 239.608C448.419 239.608 448.237 239.543 448.092 239.412C447.779 239.129 447.754 238.646 448.036 238.334C449.566 236.636 451.086 234.905 452.557 233.191C452.832 232.87 453.315 232.836 453.631 233.11C453.951 233.385 453.987 233.866 453.712 234.185C452.232 235.908 450.705 237.648 449.168 239.355C449.02 239.522 448.812 239.608 448.602 239.608ZM456.577 230.37C456.406 230.37 456.234 230.313 456.092 230.194C455.767 229.925 455.722 229.444 455.991 229.118C457.444 227.363 458.892 225.572 460.295 223.792C460.555 223.463 461.035 223.406 461.365 223.666C461.696 223.928 461.75 224.407 461.489 224.739C460.076 226.528 458.621 228.328 457.162 230.092C457.013 230.277 456.796 230.37 456.577 230.37ZM464.162 220.811C464.002 220.811 463.84 220.761 463.702 220.655C463.368 220.4 463.303 219.921 463.558 219.586C464.929 217.784 466.301 215.934 467.639 214.086C467.885 213.745 468.363 213.669 468.704 213.917C469.044 214.165 469.121 214.642 468.873 214.983C467.528 216.838 466.15 218.697 464.771 220.51C464.62 220.707 464.392 220.811 464.162 220.811ZM471.345 210.942C471.194 210.942 471.043 210.897 470.91 210.804C470.565 210.563 470.481 210.086 470.723 209.741L470.912 209.467C471.151 209.122 471.627 209.036 471.973 209.275C472.318 209.515 472.404 209.991 472.164 210.337L471.973 210.615C471.822 210.829 471.585 210.942 471.345 210.942Z" fill="white"/>
<path d="M383.968 261.848C383.623 261.848 383.31 261.611 383.226 261.261C383.129 260.85 383.384 260.439 383.792 260.341C385.909 259.84 388.111 259.221 390.337 258.498C390.741 258.367 391.17 258.589 391.298 258.988C391.427 259.391 391.208 259.82 390.809 259.948C388.541 260.685 386.299 261.315 384.144 261.825C384.083 261.844 384.025 261.848 383.968 261.848ZM395.603 258.205C395.296 258.205 395.007 258.017 394.892 257.715C394.741 257.321 394.937 256.879 395.33 256.727C397.399 255.932 399.515 255.045 401.618 254.089C402.003 253.915 402.452 254.085 402.626 254.469C402.8 254.853 402.631 255.304 402.247 255.478C400.117 256.447 397.974 257.346 395.876 258.153C395.786 258.189 395.693 258.205 395.603 258.205ZM406.746 253.238C406.468 253.238 406.197 253.084 406.064 252.82C405.875 252.443 406.024 251.984 406.401 251.794C408.399 250.785 410.421 249.696 412.411 248.56C412.776 248.35 413.241 248.478 413.451 248.844C413.658 249.21 413.532 249.678 413.166 249.886C411.154 251.033 409.108 252.135 407.089 253.156C406.978 253.211 406.861 253.238 406.746 253.238ZM417.379 247.254C417.124 247.254 416.873 247.125 416.731 246.893C416.51 246.534 416.62 246.064 416.977 245.842C418.895 244.652 420.819 243.396 422.694 242.109C423.041 241.872 423.515 241.96 423.754 242.307C423.993 242.655 423.905 243.13 423.558 243.369C421.665 244.67 419.72 245.94 417.785 247.141C417.654 247.216 417.514 247.254 417.379 247.254ZM427.468 240.399C427.233 240.399 427.003 240.293 426.854 240.089C426.604 239.751 426.674 239.274 427.014 239.021C428.837 237.67 430.651 236.261 432.406 234.829C432.733 234.562 433.214 234.612 433.478 234.939C433.744 235.267 433.694 235.748 433.37 236.012C431.596 237.46 429.762 238.885 427.921 240.247C427.783 240.351 427.623 240.399 427.468 240.399ZM436.961 232.73C436.749 232.73 436.539 232.642 436.388 232.471C436.111 232.154 436.14 231.671 436.458 231.393C438.173 229.884 439.86 228.321 441.471 226.754C441.773 226.46 442.256 226.467 442.549 226.769C442.843 227.072 442.836 227.556 442.534 227.849C440.905 229.437 439.199 231.016 437.464 232.543C437.32 232.669 437.142 232.73 436.961 232.73ZM445.746 224.26C445.559 224.26 445.37 224.19 445.223 224.052C444.916 223.763 444.903 223.28 445.191 222.972C446.768 221.301 448.296 219.587 449.728 217.879C449.997 217.558 450.482 217.513 450.802 217.786C451.125 218.057 451.168 218.539 450.897 218.862C449.446 220.592 447.899 222.329 446.301 224.023C446.15 224.179 445.949 224.26 445.746 224.26ZM453.643 214.956C453.482 214.956 453.32 214.906 453.182 214.803C452.846 214.547 452.781 214.068 453.036 213.734C454.428 211.896 455.745 210.018 456.954 208.16C457.185 207.807 457.656 207.706 458.008 207.936C458.36 208.166 458.462 208.638 458.231 208.993C457.004 210.881 455.664 212.788 454.252 214.656C454.101 214.85 453.873 214.956 453.643 214.956Z" fill="white"/>
<path d="M339.738 263.632C339.429 263.632 339.138 263.443 339.025 263.138C338.879 262.742 339.077 262.302 339.472 262.155C341.622 261.349 343.759 260.536 345.882 259.722C346.274 259.571 346.716 259.768 346.867 260.161C347.019 260.554 346.822 260.996 346.43 261.148C344.305 261.965 342.164 262.776 340.009 263.585C339.916 263.617 339.826 263.632 339.738 263.632ZM351.127 259.266C350.822 259.266 350.536 259.081 350.416 258.781C350.263 258.388 350.457 257.945 350.849 257.791C352.99 256.953 355.113 256.108 357.22 255.261C357.611 255.103 358.055 255.293 358.213 255.684C358.371 256.075 358.182 256.52 357.791 256.678C355.68 257.527 353.552 258.372 351.407 259.212C351.314 259.248 351.219 259.266 351.127 259.266ZM362.45 254.724C362.15 254.724 361.866 254.545 361.746 254.249C361.586 253.859 361.773 253.414 362.161 253.253C364.289 252.379 366.398 251.501 368.49 250.617C368.878 250.455 369.324 250.636 369.487 251.024C369.651 251.413 369.469 251.86 369.081 252.025C366.985 252.91 364.871 253.791 362.739 254.667C362.644 254.706 362.545 254.724 362.45 254.724ZM373.692 249.987C373.396 249.987 373.117 249.816 372.993 249.526C372.826 249.14 373.004 248.691 373.39 248.524C375.501 247.611 377.593 246.692 379.664 245.768C380.052 245.596 380.499 245.77 380.67 246.154C380.841 246.54 380.668 246.99 380.284 247.162C378.206 248.088 376.11 249.009 373.994 249.924C373.895 249.967 373.791 249.987 373.692 249.987ZM384.837 245.029C384.548 245.029 384.271 244.864 384.142 244.584C383.966 244.2 384.135 243.749 384.519 243.572C386.612 242.615 388.684 241.652 390.73 240.681C391.113 240.5 391.567 240.665 391.745 241.045C391.925 241.427 391.763 241.881 391.382 242.061C389.329 243.035 387.251 244.002 385.153 244.961C385.051 245.007 384.943 245.029 384.837 245.029ZM395.871 239.825C395.589 239.825 395.316 239.667 395.186 239.396C395.003 239.016 395.158 238.56 395.537 238.375C397.608 237.368 399.655 236.351 401.676 235.33C402.051 235.14 402.511 235.292 402.7 235.667C402.89 236.044 402.739 236.502 402.364 236.692C400.338 237.718 398.285 238.734 396.208 239.746C396.097 239.8 395.982 239.825 395.871 239.825ZM406.766 234.339C406.491 234.339 406.224 234.189 406.089 233.927C405.895 233.555 406.039 233.092 406.414 232.897C408.465 231.829 410.5 230.745 412.46 229.679C412.832 229.478 413.293 229.615 413.493 229.986C413.694 230.356 413.557 230.819 413.187 231.02C411.217 232.091 409.175 233.178 407.118 234.25C407.005 234.311 406.883 234.339 406.766 234.339ZM417.496 228.531C417.229 228.531 416.97 228.391 416.83 228.143C416.625 227.775 416.753 227.309 417.121 227.104C419.131 225.972 421.128 224.825 423.057 223.689C423.42 223.474 423.887 223.596 424.101 223.96C424.314 224.323 424.194 224.791 423.831 225.005C421.895 226.146 419.889 227.3 417.87 228.436C417.751 228.5 417.622 228.531 417.496 228.531ZM428.02 222.36C427.763 222.36 427.513 222.232 427.368 221.994C427.149 221.635 427.262 221.165 427.621 220.946C429.579 219.747 431.528 218.523 433.417 217.305C433.771 217.077 434.242 217.179 434.47 217.533C434.698 217.888 434.597 218.36 434.242 218.588C432.345 219.812 430.385 221.044 428.415 222.25C428.291 222.324 428.156 222.36 428.02 222.36ZM358.048 221.863C356.645 221.863 355.24 221.857 353.834 221.845C353.412 221.841 353.074 221.497 353.078 221.075C353.083 220.653 353.448 220.334 353.848 220.318C356.135 220.339 358.421 220.343 360.699 220.33C360.702 220.33 360.702 220.33 360.704 220.33C361.123 220.33 361.464 220.669 361.466 221.089C361.469 221.511 361.13 221.854 360.708 221.857C359.824 221.859 358.937 221.863 358.048 221.863ZM366.042 221.791C365.627 221.791 365.286 221.459 365.279 221.041C365.272 220.619 365.606 220.271 366.028 220.264C368.32 220.224 370.624 220.16 372.875 220.081C373.266 220.061 373.649 220.395 373.663 220.818C373.678 221.238 373.349 221.592 372.927 221.608C370.667 221.687 368.354 221.75 366.055 221.791C366.051 221.791 366.046 221.791 366.042 221.791ZM348.505 221.766C348.501 221.766 348.496 221.766 348.49 221.766C346.204 221.721 343.914 221.66 341.622 221.586C341.202 221.572 340.871 221.22 340.884 220.797C340.898 220.384 341.236 220.059 341.645 220.059C341.654 220.059 341.663 220.059 341.669 220.059C343.957 220.133 346.24 220.192 348.519 220.237C348.941 220.246 349.275 220.594 349.266 221.014C349.261 221.434 348.92 221.766 348.505 221.766ZM336.318 221.389C336.307 221.389 336.295 221.389 336.286 221.389C334.003 221.294 331.716 221.186 329.424 221.066C329.004 221.044 328.681 220.684 328.702 220.264C328.724 219.844 329.054 219.514 329.503 219.541C331.788 219.661 334.069 219.77 336.347 219.864C336.767 219.882 337.096 220.237 337.078 220.66C337.06 221.068 336.724 221.389 336.318 221.389ZM378.231 221.382C377.827 221.382 377.491 221.064 377.471 220.657C377.451 220.237 377.775 219.878 378.195 219.858C380.478 219.745 382.777 219.609 385.031 219.453C385.471 219.426 385.814 219.742 385.843 220.163C385.872 220.583 385.554 220.946 385.135 220.976C382.872 221.132 380.562 221.267 378.27 221.38C378.256 221.382 378.245 221.382 378.231 221.382ZM390.403 220.569C390.01 220.569 389.678 220.269 389.645 219.871C389.609 219.451 389.92 219.083 390.339 219.047C392.614 218.855 394.906 218.636 397.153 218.396C397.566 218.351 397.947 218.656 397.992 219.074C398.037 219.494 397.735 219.869 397.315 219.914C395.057 220.156 392.753 220.375 390.468 220.569C390.445 220.569 390.423 220.569 390.403 220.569ZM402.533 219.302C402.154 219.302 401.827 219.02 401.778 218.633C401.726 218.216 402.021 217.834 402.439 217.782C404.711 217.497 406.991 217.186 409.218 216.854C409.638 216.795 410.021 217.079 410.085 217.495C410.145 217.913 409.859 218.301 409.444 218.362C407.206 218.697 404.911 219.011 402.628 219.295C402.597 219.3 402.565 219.302 402.533 219.302ZM414.601 217.531C414.236 217.531 413.913 217.269 413.85 216.896C413.78 216.481 414.06 216.088 414.475 216.016C416.729 215.632 418.994 215.218 421.205 214.782C421.613 214.699 422.019 214.97 422.1 215.383C422.182 215.796 421.913 216.198 421.5 216.28C419.276 216.718 416.999 217.136 414.732 217.522C414.687 217.527 414.644 217.531 414.601 217.531ZM438.285 215.772C438.039 215.772 437.8 215.654 437.654 215.435C437.419 215.085 437.511 214.611 437.859 214.376C439.456 213.298 441.04 212.207 442.574 211.119C441.261 211.507 439.937 211.884 438.617 212.25C438.211 212.361 437.791 212.124 437.681 211.717C437.568 211.311 437.807 210.89 438.213 210.777C440.413 210.172 442.621 209.526 444.776 208.86C445.178 208.736 445.604 208.961 445.728 209.363C445.852 209.766 445.627 210.195 445.225 210.319C444.97 210.398 444.717 210.475 444.462 210.554C444.492 210.583 444.521 210.617 444.546 210.653C444.792 210.997 444.711 211.473 444.368 211.717C442.543 213.023 440.638 214.344 438.712 215.643C438.581 215.731 438.432 215.772 438.285 215.772ZM426.572 215.205C426.222 215.205 425.906 214.961 425.827 214.606C425.737 214.195 425.997 213.788 426.407 213.698C428.641 213.208 430.881 212.679 433.063 212.133C433.473 212.033 433.886 212.28 433.988 212.688C434.091 213.097 433.841 213.511 433.433 213.614C431.235 214.166 428.981 214.694 426.732 215.189C426.682 215.198 426.628 215.205 426.572 215.205Z" fill="white"/>
<path d="M446.754 213.305C449.108 213.305 451.016 211.395 451.016 209.038C451.016 206.682 449.108 204.771 446.754 204.771C444.401 204.771 442.493 206.682 442.493 209.038C442.493 211.395 444.401 213.305 446.754 213.305Z" fill="url(#paint12_linear)"/>
<path d="M458.112 212.029C460.466 212.029 462.374 210.118 462.374 207.762C462.374 205.405 460.466 203.495 458.112 203.495C455.758 203.495 453.85 205.405 453.85 207.762C453.85 210.118 455.758 212.029 458.112 212.029Z" fill="url(#paint13_linear)"/>
<path d="M471.537 214.172C473.891 214.172 475.799 212.262 475.799 209.905C475.799 207.549 473.891 205.639 471.537 205.639C469.183 205.639 467.275 207.549 467.275 209.905C467.275 212.262 469.183 214.172 471.537 214.172Z" fill="url(#paint14_linear)"/>
<path d="M334.831 268.963C337.185 268.963 339.093 267.053 339.093 264.696C339.093 262.34 337.185 260.429 334.831 260.429C332.477 260.429 330.569 262.34 330.569 264.696C330.569 267.053 332.477 268.963 334.831 268.963Z" fill="url(#paint15_linear)"/>
<path d="M383.968 265.351C386.322 265.351 388.23 263.441 388.23 261.084C388.23 258.728 386.322 256.818 383.968 256.818C381.615 256.818 379.707 258.728 379.707 261.084C379.707 263.441 381.615 265.351 383.968 265.351Z" fill="url(#paint16_linear)"/>
<path d="M413.171 276.62C415.525 276.62 417.433 274.71 417.433 272.353C417.433 269.997 415.525 268.087 413.171 268.087C410.817 268.087 408.909 269.997 408.909 272.353C408.909 274.71 410.817 276.62 413.171 276.62Z" fill="url(#paint17_linear)"/>
<path d="M329.464 224.569C331.818 224.569 333.726 222.659 333.726 220.303C333.726 217.946 331.818 216.036 329.464 216.036C327.11 216.036 325.202 217.946 325.202 220.303C325.202 222.659 327.11 224.569 329.464 224.569Z" fill="url(#paint18_linear)"/>
<defs>
<linearGradient id="paint0_linear" x1="706.857" y1="818.208" x2="144.66" y2="120.828" gradientUnits="userSpaceOnUse">
<stop stop-color="#DAE3FE"/>
<stop offset="1" stop-color="#E9EFFD"/>
</linearGradient>
<linearGradient id="paint1_linear" x1="612.331" y1="58.3808" x2="739.452" y2="-130.357" gradientUnits="userSpaceOnUse">
<stop stop-color="#4F52FF"/>
<stop offset="1" stop-color="#4042E2"/>
</linearGradient>
<linearGradient id="paint2_linear" x1="496.799" y1="191.12" x2="472.752" y2="223.144" gradientUnits="userSpaceOnUse">
<stop stop-color="#4F52FF"/>
<stop offset="1" stop-color="#4042E2"/>
</linearGradient>
<linearGradient id="paint3_linear" x1="188.922" y1="136.826" x2="253.096" y2="-148.176" gradientUnits="userSpaceOnUse">
<stop stop-color="#4F52FF"/>
<stop offset="1" stop-color="#4042E2"/>
</linearGradient>
<linearGradient id="paint4_linear" x1="275.17" y1="156.247" x2="339.343" y2="-128.755" gradientUnits="userSpaceOnUse">
<stop stop-color="#4F52FF"/>
<stop offset="1" stop-color="#4042E2"/>
</linearGradient>
<linearGradient id="paint5_linear" x1="254.608" y1="151.618" x2="318.781" y2="-133.384" gradientUnits="userSpaceOnUse">
<stop stop-color="#4F52FF"/>
<stop offset="1" stop-color="#4042E2"/>
</linearGradient>
<linearGradient id="paint6_linear" x1="437.141" y1="192.718" x2="501.315" y2="-92.2844" gradientUnits="userSpaceOnUse">
<stop stop-color="#4F52FF"/>
<stop offset="1" stop-color="#4042E2"/>
</linearGradient>
<linearGradient id="paint7_linear" x1="512.73" y1="209.738" x2="576.903" y2="-75.2655" gradientUnits="userSpaceOnUse">
<stop stop-color="#4F52FF"/>
<stop offset="1" stop-color="#4042E2"/>
</linearGradient>
<linearGradient id="paint8_linear" x1="355.455" y1="259.744" x2="440.244" y2="12.5468" gradientUnits="userSpaceOnUse">
<stop stop-color="#4F52FF"/>
<stop offset="1" stop-color="#4042E2"/>
</linearGradient>
<linearGradient id="paint9_linear" x1="345.909" y1="172.176" x2="410.08" y2="-112.824" gradientUnits="userSpaceOnUse">
<stop stop-color="#4F52FF"/>
<stop offset="1" stop-color="#4042E2"/>
</linearGradient>
<linearGradient id="paint10_linear" x1="299.044" y1="161.623" x2="363.217" y2="-123.378" gradientUnits="userSpaceOnUse">
<stop stop-color="#4F52FF"/>
<stop offset="1" stop-color="#4042E2"/>
</linearGradient>
<linearGradient id="paint11_linear" x1="519.659" y1="211.298" x2="583.834" y2="-73.7051" gradientUnits="userSpaceOnUse">
<stop stop-color="#4F52FF"/>
<stop offset="1" stop-color="#4042E2"/>
</linearGradient>
<linearGradient id="paint12_linear" x1="443.108" y1="211.246" x2="450.404" y2="206.837" gradientUnits="userSpaceOnUse">
<stop stop-color="#E1473D"/>
<stop offset="1" stop-color="#E9605A"/>
</linearGradient>
<linearGradient id="paint13_linear" x1="454.467" y1="209.97" x2="461.763" y2="205.561" gradientUnits="userSpaceOnUse">
<stop stop-color="#E1473D"/>
<stop offset="1" stop-color="#E9605A"/>
</linearGradient>
<linearGradient id="paint14_linear" x1="467.892" y1="212.113" x2="475.187" y2="207.704" gradientUnits="userSpaceOnUse">
<stop stop-color="#E1473D"/>
<stop offset="1" stop-color="#E9605A"/>
</linearGradient>
<linearGradient id="paint15_linear" x1="331.185" y1="266.904" x2="338.481" y2="262.495" gradientUnits="userSpaceOnUse">
<stop stop-color="#E1473D"/>
<stop offset="1" stop-color="#E9605A"/>
</linearGradient>
<linearGradient id="paint16_linear" x1="380.322" y1="263.294" x2="387.618" y2="258.885" gradientUnits="userSpaceOnUse">
<stop stop-color="#E1473D"/>
<stop offset="1" stop-color="#E9605A"/>
</linearGradient>
<linearGradient id="paint17_linear" x1="409.526" y1="274.562" x2="416.822" y2="270.153" gradientUnits="userSpaceOnUse">
<stop stop-color="#E1473D"/>
<stop offset="1" stop-color="#E9605A"/>
</linearGradient>
<linearGradient id="paint18_linear" x1="325.817" y1="222.512" x2="333.113" y2="218.103" gradientUnits="userSpaceOnUse">
<stop stop-color="#E1473D"/>
<stop offset="1" stop-color="#E9605A"/>
</linearGradient>
</defs>
</svg>
